<?xml version="1.0" encoding="UTF-8"?>
<svg width="16px" height="16px" viewBox="0 0 16 16" version="1.1" xmlns="http://www.w3.org/2000/svg" xmlns:xlink="http://www.w3.org/1999/xlink">
    <!-- Generator: Sketch 52.5 (67469) - http://www.bohemiancoding.com/sketch -->
    <title>形状 copy 6</title>
    <desc>Created with Sketch.</desc>
    <g id="数据录入" stroke="none" stroke-width="1" fill="none" fill-rule="evenodd" opacity="1">
        <g id="时间-copy-2" transform="translate(-1477.000000, -911.000000)" fill="#FFFFFF" fill-rule="nonzero">
            <path d="M1488.22292,923.641475 C1485.47365,925.702746 1481.55619,925.483149 1479.05582,922.982684 C1476.31473,920.241479 1476.31473,915.797108 1479.05582,913.055903 C1481.79692,910.314699 1486.24112,910.314699 1488.98221,913.055903 C1491.48258,915.556369 1491.70217,919.473983 1489.64098,922.223364 L1492.70759,925.293156 C1493.09738,925.682955 1493.09865,926.313674 1492.70433,926.708004 C1492.31275,927.099605 1491.67222,927.093969 1491.28954,926.711268 L1488.22292,923.641475 Z M1487.50633,921.504586 C1489.45354,919.5577 1489.45354,916.401175 1487.50633,914.454289 C1485.55912,912.507404 1482.40207,912.507404 1480.45486,914.454289 C1478.50765,916.401175 1478.50765,919.5577 1480.45486,921.504586 C1482.40207,923.451471 1485.55912,923.451472 1487.50633,921.504586 Z M1482,917 L1486,917 C1486.55228,917 1487,917.447715 1487,918 C1487,918.552285 1486.55228,919 1486,919 L1482,919 C1481.44772,919 1481,918.552285 1481,918 C1481,917.447715 1481.44772,917 1482,917 Z M1483,920 L1483,916 C1483,915.447715 1483.44772,915 1484,915 C1484.55228,915 1485,915.447715 1485,916 L1485,920 C1485,920.552285 1484.55228,921 1484,921 C1483.44772,921 1483,920.552285 1483,920 Z" id="形状-copy-6"></path>
        </g>
    </g>
</svg>