<?xml version="1.0" encoding="UTF-8"?>
<svg width="15px" height="15px" viewBox="0 0 15 15" version="1.1" xmlns="http://www.w3.org/2000/svg" xmlns:xlink="http://www.w3.org/1999/xlink">
    <!-- Generator: Sketch 52.5 (67469) - http://www.bohemiancoding.com/sketch -->
    <title>实时刷新</title>
    <desc>Created with Sketch.</desc>
    <g id="数据录入" stroke="none" stroke-width="1" fill="none" fill-rule="evenodd">
        <g id="时间-copy" transform="translate(-1273.000000, -102.000000)" fill="#FFFFFF" fill-rule="nonzero">
            <path d="M1285.10962,106.161683 C1284.05886,104.813748 1282.42582,104.000015 1280.6504,104.000015 C1277.55192,104.000015 1275.04011,106.462446 1275.04011,109.500009 C1275.04011,112.537571 1277.55192,115.000002 1280.6504,115.000002 C1282.58358,115.000002 1284.34709,114.03497 1285.37366,112.46954 C1285.67831,112.004977 1286.30943,111.870486 1286.78332,112.169146 C1287.2572,112.467807 1287.39438,113.086523 1287.08973,113.551086 C1285.69161,115.683093 1283.28508,117 1280.6504,117 C1276.4252,117 1273,113.642139 1273,109.500009 C1273,105.357878 1276.4252,102.000017 1280.6504,102.000017 C1282.65236,102.000017 1284.52345,102.760257 1285.9206,104.062647 L1285.96053,102.964396 C1285.98059,102.412462 1286.45326,101.980977 1287.01626,102.000647 C1287.57927,102.020317 1288.0194,102.483693 1287.99934,103.035627 L1287.87576,106.435197 C1287.86266,106.79553 1287.6527,107.12105 1287.32626,107.287151 L1284.47792,108.736446 C1283.9779,108.990867 1283.36217,108.799739 1283.10264,108.309547 C1282.84312,107.819356 1283.03808,107.215728 1283.5381,106.961307 L1285.10962,106.161683 Z" id="实时刷新"></path>
        </g>
    </g>
</svg>